<?xml version="1.0" encoding="UTF-8" standalone="no"?>
<svg
   id="svg22446"
   version="1.1"
   viewBox="0 0 63.000063 88.000088"
   height="88mm"
   width="63mm"
   xmlns="http://www.w3.org/2000/svg"
   xmlns:svg="http://www.w3.org/2000/svg"
   xmlns:rdf="http://www.w3.org/1999/02/22-rdf-syntax-ns#"
   xmlns:cc="http://creativecommons.org/ns#"
   xmlns:dc="http://purl.org/dc/elements/1.1/">
  <defs
     id="defs40406" />
  <title
     id="title3347">Vector Playing Cards - Playing Card Backs</title>
  <g
     transform="matrix(1.0084536,0,0,1.0060205,-1138.884,-146.99761)"
     id="g58135">
    <g
       transform="matrix(0.94578533,0,0,0.96067057,121.40796,-9.4533592)"
       id="g58131"
       style="fill:none;stroke:#ffffff;stroke-width:3.58109;stroke-dasharray:none;stroke-opacity:1">
      <g
         style="fill:none;stroke:#ffffff;stroke-width:3.58109;stroke-dasharray:none;stroke-opacity:1"
         transform="translate(220.31079,-197.5929)"
         id="g58129">
        <rect
           rx="2.9916408"
           ry="2.9916408"
           style="fill:none;stroke:#ffffff;stroke-width:3.58109;stroke-miterlimit:4;stroke-dasharray:none;stroke-opacity:1"
           id="rect58127"
           width="62.471889"
           height="87.473366"
           x="847.18573"
           y="361.32373" />
      </g>
    </g>
  </g>
  <metadata
     id="metadata40888">
    <rdf:RDF>
      <cc:Work
         rdf:about="">
        <dc:title>Vector Playing Cards - Playing Card Backs</dc:title>
      </cc:Work>
    </rdf:RDF>
  </metadata>
  <g
     transform="matrix(0.52083299,0,0,0.52083299,-311.61139,-18.546336)"
     style="fill:#ffffff;fill-opacity:1;stroke:none"
     id="use18356">
    <path
       style="fill:#ffffff;fill-opacity:1;stroke:none;stroke-width:1.06667"
       d="m 658.77014,94.489029 c -10.47286,0.22714 -15.16896,12.003481 -7.4127,21.148491 1.12491,1.3339 1.24096,2.09937 -0.8192,0.8181 -5.22208,-3.48762 -15.2352,-1.19488 -15.74795,9.46739 -0.63338,13.13743 17.74625,16.92268 21.19723,2.95309 0.18219,-1.4739 1.38155,-1.44026 1.09238,0.65186 -0.31467,5.67834 -2.09024,10.9856 -4.53078,16.16106 4.11339,0 8.7104,0 12.45046,0 -2.44043,-5.17546 -4.21611,-10.48272 -4.53078,-16.16106 -0.28917,-2.09212 0.91019,-2.12576 1.09238,-0.65186 3.45098,13.96959 21.83061,10.18434 21.19722,-2.95309 -0.51264,-10.66227 -10.52586,-12.95501 -15.74794,-9.46739 -2.06016,1.28127 -1.94411,0.51579 -0.8192,-0.8181 7.75626,-9.14501 3.06016,-20.921331 -7.41259,-21.148491 0,-6e-5 0,5e-5 -0.0107,0 z"
       id="path1195" />
  </g>
</svg>
