<?xml version="1.0" encoding="UTF-8" standalone="no"?>
<svg
   id="svg22446"
   version="1.1"
   viewBox="0 0 63.000063 88.000088"
   height="88mm"
   width="63mm"
   xmlns="http://www.w3.org/2000/svg"
   xmlns:svg="http://www.w3.org/2000/svg"
   xmlns:rdf="http://www.w3.org/1999/02/22-rdf-syntax-ns#"
   xmlns:cc="http://creativecommons.org/ns#"
   xmlns:dc="http://purl.org/dc/elements/1.1/">
  <defs
     id="defs40406" />
  <title
     id="title3347">Vector Playing Cards - Playing Card Backs</title>
  <g
     transform="matrix(1.0084536,0,0,1.0060205,-1138.884,-146.99761)"
     id="g58135">
    <g
       transform="matrix(0.94578533,0,0,0.96067057,121.40796,-9.4533592)"
       id="g58131"
       style="fill:none;stroke:#ffffff;stroke-width:3.58109;stroke-dasharray:none;stroke-opacity:1">
      <g
         style="fill:none;stroke:#ffffff;stroke-width:3.58109;stroke-dasharray:none;stroke-opacity:1"
         transform="translate(220.31079,-197.5929)"
         id="g58129">
        <rect
           rx="2.9916408"
           ry="2.9916408"
           style="fill:none;stroke:#ffffff;stroke-width:3.58109;stroke-miterlimit:4;stroke-dasharray:none;stroke-opacity:1"
           id="rect58127"
           width="62.471889"
           height="87.473366"
           x="847.18573"
           y="361.32373" />
      </g>
    </g>
  </g>
  <metadata
     id="metadata40888">
    <rdf:RDF>
      <cc:Work
         rdf:about="">
        <dc:title>Vector Playing Cards - Playing Card Backs</dc:title>
      </cc:Work>
    </rdf:RDF>
  </metadata>
  <g
     transform="matrix(0.62078304,0,0,0.62078304,-433.10779,-28.080089)"
     style="fill:#ffffff;fill-opacity:1;stroke:none"
     id="use18363">
    <path
       style="fill:#ffffff;fill-opacity:1;stroke:none;stroke-width:1.06667;stroke-opacity:1"
       d="m 748.42216,141.71154 c 0,0 -4.97739,-8.16584 -11.69163,-17.76668 -4.49173,-6.42481 -8.08277,-13.38168 -8.41664,-19.37396 -0.38293,-6.845134 3.24181,-13.712414 9.80416,-14.045244 6.5584,-0.33264 9.22048,5.2779 10.30411,9.903584 1.08373,-4.625694 3.74581,-10.236224 10.30421,-9.903584 6.56235,0.33283 10.1871,7.20011 9.80416,14.045244 -0.33386,5.99228 -3.9249,12.94915 -8.41664,19.37396 -6.71424,9.60084 -11.69173,17.76668 -11.69173,17.76668 z"
       id="path1179" />
  </g>
</svg>
