<?xml version="1.0" encoding="UTF-8" standalone="no"?>
<svg
   id="svg22446"
   version="1.1"
   viewBox="0 0 63.000063 88.000088"
   height="88mm"
   width="63mm"
   xmlns="http://www.w3.org/2000/svg"
   xmlns:svg="http://www.w3.org/2000/svg"
   xmlns:rdf="http://www.w3.org/1999/02/22-rdf-syntax-ns#"
   xmlns:cc="http://creativecommons.org/ns#"
   xmlns:dc="http://purl.org/dc/elements/1.1/">
  <defs
     id="defs40406" />
  <title
     id="title3347">Vector Playing Cards - Playing Card Backs</title>
  <g
     transform="matrix(1.0084536,0,0,1.0060205,-1138.884,-146.99761)"
     id="g58135">
    <g
       transform="matrix(0.94578533,0,0,0.96067057,121.40796,-9.4533592)"
       id="g58131"
       style="fill:none;stroke:#ffffff;stroke-width:3.58109;stroke-dasharray:none;stroke-opacity:1">
      <g
         style="fill:none;stroke:#ffffff;stroke-width:3.58109;stroke-dasharray:none;stroke-opacity:1"
         transform="translate(220.31079,-197.5929)"
         id="g58129">
        <rect
           rx="2.9916408"
           ry="2.9916408"
           style="fill:none;stroke:#ffffff;stroke-width:3.58109;stroke-miterlimit:4;stroke-dasharray:none;stroke-opacity:1"
           id="rect58127"
           width="62.471889"
           height="87.473366"
           x="847.18573"
           y="361.32373" />
      </g>
    </g>
  </g>
  <metadata
     id="metadata40888">
    <rdf:RDF>
      <cc:Work
         rdf:about="">
        <dc:title>Vector Playing Cards - Playing Card Backs</dc:title>
      </cc:Work>
    </rdf:RDF>
  </metadata>
  <g
     transform="matrix(0.60835852,0,0,0.60835852,-477.62427,-26.637465)"
     style="fill:#ffffff;fill-opacity:1;stroke:none"
     id="use18372">
    <path
       id="path1183"
       d="m 836.882,90.511546 c -9.84107,14.034264 -20.37088,22.110474 -20.54581,33.059554 -0.0587,3.5455 1.85824,9.57166 7.8625,10.72511 3.89547,0.74488 9.25878,-2.40798 9.37078,-8.81335 -0.0171,-1.27526 1.35029,-1.24212 1.33749,0.5053 -0.18347,5.05249 -1.78283,10.935 -4.47083,15.72339 4.29728,0 8.59446,0 12.89174,0 -2.688,-4.78841 -4.28736,-10.6709 -4.47083,-15.72339 -0.0128,-1.74742 1.35456,-1.78056 1.33749,-0.5053 0.112,6.40537 5.47531,9.55823 9.37078,8.81335 6.00427,-1.15345 7.92117,-7.17961 7.86251,-10.72511 -0.17494,-10.94908 -10.70475,-19.02529 -20.54582,-33.059554 z"
       style="fill:#ffffff;fill-opacity:1;stroke:none;stroke-width:1.6;stroke-linecap:square;stroke-linejoin:miter;stroke-miterlimit:2;stroke-dasharray:none;stroke-opacity:1" />
  </g>
</svg>
